<svg
  xmlns="http://www.w3.org/2000/svg"
  width="340"
  height="220"
  viewBox="0 0 340 220"
  role="img"
  aria-labelledby="title desc"
>
  <title id="title">
    Force sensing and serotonin signaling in a valve cell
  </title>
  <desc id="desc">
    A conceptual membrane cross section shows a PIEZO1 channel, calcium ions, a
    serotonin transporter, and a serotonin receptor. The proteins are schematic
    symbols, not molecular structures.
  </desc>
  <defs>
    <linearGradient id="cell" x2="0" y2="1">
      <stop stop-color="#dce7d8" stop-opacity=".2" />
      <stop offset="1" stop-color="#cbd9c3" stop-opacity=".9" />
    </linearGradient>
    <pattern id="lipids" width="13" height="32" patternUnits="userSpaceOnUse">
      <g stroke="#8fa78a" stroke-width="1">
        <path d="M4 8v8m4-8v8M4 24v-6m4 6v-6" />
        <circle cx="6" cy="5" r="3.5" fill="#b2c5a5" />
        <circle cx="6" cy="27" r="3.5" fill="#b2c5a5" />
      </g>
    </pattern>
    <marker
      id="arrow"
      viewBox="0 0 8 8"
      refX="6"
      refY="4"
      markerWidth="4"
      markerHeight="4"
      orient="auto"
    >
      <path d="M1 1l5 3-5 3" fill="none" stroke="#64846c" stroke-width="1.2" />
    </marker>
  </defs>
  <path d="M21 107H319V177Q170 201 21 177Z" fill="url(#cell)" />
  <rect x="21" y="80" width="298" height="32" fill="url(#lipids)" />
  <g fill="#9ebd9f" stroke="#456d59" stroke-width="1.6">
    <path d="M63 79C64 60 78 61 83 74L92 90V119L80 123V98L66 91Z" />
    <path d="M118 79C117 60 103 61 98 74L89 90V119L101 123V98L115 91Z" />
  </g>
  <path
    d="M85 77v52"
    stroke="#476d55"
    stroke-width="1"
    stroke-dasharray="2 3"
    marker-end="url(#arrow)"
  />
  <g fill="#b28b55">
    <circle cx="87" cy="38" r="3.3" />
    <circle cx="80" cy="51" r="2.5" />
    <circle cx="97" cy="49" r="2.7" />
    <circle cx="84" cy="141" r="2.6" />
    <circle cx="97" cy="149" r="2.4" />
    <circle cx="72" cy="151" r="2.7" />
  </g>
  <text
    font-weight="600"
    x="106"
    y="41"
    font-family="Arial,sans-serif"
    font-size="12"
    fill="#254533"
  >
    Ca²⁺
  </text>
  <text
    font-weight="600"
    x="90"
    y="20"
    text-anchor="middle"
    fill="#254533"
    font-family="Arial,sans-serif"
    font-size="12"
    letter-spacing=".5"
  >
    PIEZO1
  </text>
  <g fill="none" stroke="#8d745d" stroke-width="7" stroke-linecap="round">
    <path d="M183 78v34M196 78v34" />
  </g>
  <path
    d="M189 59v75"
    fill="none"
    stroke="#8a7560"
    stroke-width="1.1"
    stroke-dasharray="2 3"
    marker-end="url(#arrow)"
  />
  <g fill="#c39c80" stroke="#a77d5f" stroke-width=".5">
    <circle cx="184" cy="43" r="3" />
    <circle cx="197" cy="53" r="3" />
    <circle cx="208" cy="41" r="3" />
    <circle cx="253" cy="47" r="3" />
    <circle cx="270" cy="39" r="3" />
  </g>
  <text
    font-weight="600"
    x="190"
    y="20"
    text-anchor="middle"
    fill="#254533"
    font-family="Arial,sans-serif"
    font-size="12"
  >
    SERT
  </text>
  <g fill="none" stroke="#668b7a" stroke-width="5" stroke-linecap="round">
    <path d="M257 78v29q3 8 6 0V80q3-8 6 0v27q3 8 6 0V80" />
  </g>
  <path
    d="M265 111v26q0 9-9 9h-56"
    fill="none"
    stroke="#759081"
    stroke-width="1"
    stroke-dasharray="3 4"
    marker-end="url(#arrow)"
  />
  <text
    font-weight="600"
    x="266"
    y="20"
    text-anchor="middle"
    fill="#254533"
    font-family="Arial,sans-serif"
    font-size="12"
  >
    HTR2B
  </text>
  <text
    font-weight="600"
    x="258"
    y="64"
    text-anchor="middle"
    fill="#254533"
    font-family="Arial,sans-serif"
    font-size="10"
  >
    5-HT
  </text>
  <ellipse
    cx="167"
    cy="159"
    rx="25"
    ry="15"
    fill="#d9e3d2"
    stroke="#93ab88"
    stroke-width="1"
  />
  <path
    d="M151 158q8-9 15 0t15 0M157 165q7-8 15-1"
    stroke="#a1b496"
    stroke-width="1"
    fill="none"
  />
  <text
    font-weight="600"
    x="169"
    y="209"
    text-anchor="middle"
    fill="#254533"
    font-family="Arial,sans-serif"
    font-size="11"
    letter-spacing="1.5"
  >
    CELLULAR SCALE
  </text>
</svg>
